# xmcd
#
# Track frame offsets:
# 150
# 13444
# 24691
# 40565
# 57431
# 72010
# 85406
# 101031
# 115464
# 125804
# 139030
# 152696
# 174976
# 186024
# 205277
#
# Disc length: 2943 seconds
#
#
# Revision: 0
# Processed by: cddbd v1.5.2PL0 Copyright (c) Steve Scherf et al.
# Submitted via: FreeRIP 2.96 
#
DISCID=d50b7d0f
DTITLE=Gustavo Moura and Rafael - Magia e Segredo
DYEAR=2011
DGENRE=Country
TTITLE0=Magia e segredo
TTITLE1=Tá combinado
TTITLE2=Agora você chora
TTITLE3=Cachaça, mulher e gaia
TTITLE4=Cobrança
TTITLE5=Implora
TTITLE6=Tempestade de amor
TTITLE7=Coração de papelão
TTITLE8=Carta branca
TTITLE9=Tentação
TTITLE10=Amor proibido
TTITLE11=Pout-Pourri modão
TTITLE12=Mulher briguenta
TTITLE13=Pout-Pourri - xoté
TTITLE14=Uma mulher quando ama
EXTD=Ano 2011 - M. P. A.
EXTT0=
EXTT1=
EXTT2=
EXTT3=
EXTT4=
EXTT5=
EXTT6=
EXTT7=
EXTT8=
EXTT9=
EXTT10=
EXTT11=
EXTT12=
EXTT13=
EXTT14=
PLAYORDER=
